<svg xmlns="http://www.w3.org/2000/svg" viewBox="0 0 90 126" width="90" height="126">
  <rect x="0" y="0" width="90" height="126" rx="8" ry="8" fill="#1e3a5f"/>
  <rect x="3" y="3" width="84" height="120" rx="6" ry="6" fill="none" stroke="rgba(212,168,67,0.5)" stroke-width="1.5"/>
  <defs>
    <pattern id="hatch" x="0" y="0" width="10" height="10" patternUnits="userSpaceOnUse">
      <path d="M0,0 L10,10 M10,0 L0,10" stroke="rgba(255,255,255,0.06)" stroke-width="1"/>
    </pattern>
    <clipPath id="clip">
      <rect x="5" y="5" width="80" height="116" rx="5"/>
    </clipPath>
  </defs>
  <rect x="5" y="5" width="80" height="116" fill="url(#hatch)" clip-path="url(#clip)"/>
  <polygon points="45,20 60,45 45,70 30,45" fill="none" stroke="rgba(212,168,67,0.6)" stroke-width="2"/>
  <polygon points="45,30 55,47 45,64 35,47" fill="rgba(212,168,67,0.1)" stroke="rgba(212,168,67,0.4)" stroke-width="1"/>
  <text x="45" y="50" font-size="18" fill="rgba(212,168,67,0.7)" text-anchor="middle" dominant-baseline="central" font-family="Arial">♠</text>
  <text x="12" y="15" font-size="10" fill="rgba(212,168,67,0.4)" text-anchor="middle" dominant-baseline="central" font-family="Arial">♦</text>
  <text x="78" y="15" font-size="10" fill="rgba(212,168,67,0.4)" text-anchor="middle" dominant-baseline="central" font-family="Arial">♦</text>
  <text x="12" y="111" font-size="10" fill="rgba(212,168,67,0.4)" text-anchor="middle" dominant-baseline="central" font-family="Arial">♦</text>
  <text x="78" y="111" font-size="10" fill="rgba(212,168,67,0.4)" text-anchor="middle" dominant-baseline="central" font-family="Arial">♦</text>
  <rect x="0" y="0" width="90" height="126" rx="8" ry="8" fill="none" stroke="rgba(255,255,255,0.08)" stroke-width="1"/>
</svg>
